<svg xmlns="http://www.w3.org/2000/svg" viewBox="0 0 512 512" width="512" height="512">
  <rect width="512" height="512" rx="96" fill="#042f2e"/>
  <!-- 하트 + 십자 조합 케어 아이콘 -->
  <g transform="translate(256,256)">
    <!-- 하트 배경 -->
    <path d="M0,60 C0,60 -100,-20 -100,-80 C-100,-140 -40,-160 0,-120 C40,-160 100,-140 100,-80 C100,-20 0,60 0,60Z" fill="#14B8A6" opacity="0.3"/>
    <!-- 십자형 메인 -->
    <rect x="-24" y="-90" width="48" height="120" rx="12" fill="#14B8A6"/>
    <rect x="-70" y="-54" width="140" height="48" rx="12" fill="#14B8A6"/>
    <!-- 하트 포인트 -->
    <path d="M0,110 C0,110 -70,40 -70,-20 C-70,-70 -20,-90 0,-60 C20,-90 70,-70 70,-20 C70,40 0,110 0,110Z" fill="#5EEAD4"/>
  </g>
</svg>
